<svg width="33" height="31" viewBox="0 0 33 31" fill="none" xmlns="http://www.w3.org/2000/svg">
<path d="M31.5972 15.5C31.5972 23.7727 24.7197 30.5 16.2097 30.5C7.69976 30.5 0.822266 23.7727 0.822266 15.5C0.822266 7.22729 7.69976 0.5 16.2097 0.5C24.7197 0.5 31.5972 7.22729 31.5972 15.5Z" stroke="#1576F5"/>
<path d="M11.4269 12.3057L15.6807 17.2673L19.9346 12.3057L21.2413 13.8332L15.6807 20.3332L10.1201 13.8332L11.4269 12.3057Z" fill="#1576F5"/>
<path d="M31.5972 15.5C31.5972 23.7727 24.7197 30.5 16.2097 30.5C7.69976 30.5 0.822266 23.7727 0.822266 15.5C0.822266 7.22729 7.69976 0.5 16.2097 0.5C24.7197 0.5 31.5972 7.22729 31.5972 15.5Z" stroke="#1576F5"/>
</svg>
